<?xml version="1.0" standalone="no"?>
<!DOCTYPE svg PUBLIC "-//W3C//DTD SVG 20010904//EN"
 "http://www.w3.org/TR/2001/REC-SVG-20010904/DTD/svg10.dtd">
<svg version="1.0" xmlns="http://www.w3.org/2000/svg"
 width="830.000000pt" height="830.000000pt" viewBox="0 0 830.000000 830.000000"
 preserveAspectRatio="xMidYMid meet">

<g transform="translate(0.000000,830.000000) scale(0.100000,-0.100000)"
fill="#000000" stroke="none">
<path d="M5033 7878 c-12 -6 -27 -23 -33 -37 -30 -74 64 -136 118 -78 55 59
-13 151 -85 115z m65 -24 c40 -28 19 -94 -30 -94 -27 0 -58 28 -58 52 0 21 34
58 53 58 7 0 23 -7 35 -16z"/>
<path d="M1521 7764 c-25 -32 -26 -52 -5 -82 19 -27 74 -30 96 -4 28 31 30 57
7 85 -28 36 -70 36 -98 1z m83 -10 c21 -21 20 -40 -4 -64 -24 -24 -29 -24 -58
-4 -24 17 -29 53 -10 72 17 17 54 15 72 -4z"/>
<path d="M2430 7540 c-549 -46 -1051 -291 -1371 -670 -152 -179 -274 -380
-359 -590 -44 -107 -56 -128 -86 -148 -31 -19 -37 -20 -50 -7 -8 8 -32 20 -52
26 -78 23 -148 -35 -146 -122 1 -73 71 -171 173 -241 l23 -16 -11 -114 c-70
-719 144 -1524 590 -2224 318 -499 805 -1020 1610 -1721 345 -301 483 -413
491 -400 7 11 12 2 9 -16 -1 -5 4 -5 10 -1 8 5 -1 18 -27 38 -55 44 -473 406
-629 545 -452 404 -826 778 -1084 1085 -612 728 -951 1583 -952 2401 0 293 21
435 65 435 10 0 11 -11 5 -51 -22 -137 -31 -383 -19 -542 48 -683 298 -1345
738 -1952 302 -415 756 -883 1443 -1485 193 -169 436 -372 366 -306 -41 39
-44 45 -25 44 13 -1 37 -13 53 -27 l30 -26 -30 33 c-32 36 -74 65 -60 41 5 -8
4 -10 -4 -5 -6 4 -9 11 -6 16 2 4 -44 50 -103 101 -1355 1177 -1891 1849
-2181 2732 -149 455 -202 895 -156 1305 19 167 20 173 61 233 39 58 51 111 36
151 -12 33 -1 72 64 223 196 457 555 815 989 987 420 166 907 193 1250 71 113
-40 283 -127 395 -202 199 -131 381 -302 557 -521 47 -60 91 -106 97 -104 6 3
31 31 56 62 185 233 469 487 685 614 172 101 362 174 525 204 133 24 383 29
526 10 486 -64 898 -275 1169 -597 266 -317 412 -684 464 -1161 16 -146 14
-338 -4 -362 -18 -24 -19 -84 -4 -136 43 -141 -183 -1031 -290 -1145 -41 -43
-53 -71 -54 -124 0 -37 -13 -69 -63 -161 -34 -63 -64 -122 -66 -130 -2 -8 -10
-21 -18 -28 -8 -8 -9 -11 -2 -7 17 9 15 -20 -3 -35 -8 -7 -15 -9 -15 -4 0 21
-23 -18 -26 -45 -3 -24 0 -29 12 -24 14 5 15 3 4 -18 l-13 -23 -9 23 c-4 12
-5 28 -2 34 3 7 -4 1 -15 -13 -11 -14 -19 -31 -16 -38 3 -7 1 -11 -4 -8 -12 8
-45 -45 -43 -69 0 -10 -4 -26 -11 -35 -6 -8 4 -1 22 15 l34 30 -18 -30 -17
-30 21 24 c12 13 20 30 17 38 -3 7 0 12 7 10 7 -1 12 6 12 15 0 9 4 20 9 25 5
4 6 3 2 -4 -4 -7 -5 -13 -2 -13 11 0 66 102 60 112 -4 6 -3 8 3 5 9 -6 30 28
126 202 l36 65 12 -27 c11 -24 7 -35 -36 -119 -26 -51 -75 -136 -108 -188 -33
-52 -60 -103 -59 -113 0 -9 -3 -15 -7 -12 -13 8 -64 -76 -53 -87 12 -12 214
299 268 415 10 20 21 36 25 35 4 -2 28 -31 53 -65 30 -41 53 -63 66 -63 11 0
50 11 87 25 171 65 263 154 263 256 0 98 -111 175 -204 140 -21 -9 -30 -5 -65
30 l-40 40 34 87 c78 204 152 479 195 727 29 171 27 164 49 158 24 -6 111 71
153 136 46 73 34 146 -29 176 -34 16 -87 13 -98 -6 -16 -25 -25 -2 -25 60 0
92 -17 301 -36 439 -47 350 -197 723 -399 991 -90 120 -271 296 -394 384 -406
290 -1044 429 -1518 331 -402 -83 -844 -368 -1191 -769 l-43 -49 -41 49 c-70
85 -299 308 -388 379 -266 211 -572 356 -840 399 -122 20 -309 27 -430 17z
m473 -50 c264 -56 486 -161 727 -343 107 -82 339 -303 426 -408 34 -40 65 -69
74 -67 8 2 62 54 119 117 332 361 702 600 1064 686 158 37 282 49 451 42 677
-27 1241 -338 1581 -871 204 -320 333 -804 335 -1258 0 -65 -1 -68 -23 -68
-24 0 -24 1 -30 148 -22 503 -144 897 -387 1244 -96 137 -300 338 -435 428
-335 223 -769 343 -1180 326 -358 -14 -672 -137 -1005 -394 -101 -78 -326
-296 -417 -404 -35 -43 -69 -78 -73 -78 -5 0 -35 33 -66 73 -85 107 -325 342
-439 428 -242 184 -476 297 -728 351 -138 29 -458 32 -617 5 -591 -100 -1027
-379 -1334 -855 -56 -87 -152 -278 -190 -379 -21 -55 -32 -73 -46 -73 -10 0
-21 4 -24 8 -3 4 12 51 33 103 206 512 560 889 1018 1088 183 80 404 140 613
167 152 19 426 12 553 -16z m-2354 -1386 l31 -26 26 21 c29 23 83 28 115 11
22 -12 49 -60 49 -88 0 -46 -53 -123 -122 -177 -78 -62 -75 -62 -152 6 -103
91 -136 193 -81 253 33 36 91 36 134 0z m7135 -825 l26 -20 26 20 c33 26 85
27 106 4 30 -35 31 -62 3 -118 -25 -52 -105 -135 -130 -135 -23 0 -106 74
-131 115 -31 54 -31 99 1 130 30 30 64 32 99 4z m-41 -347 c-28 -208 -89 -459
-164 -677 -67 -197 -75 -215 -100 -215 -26 0 -26 0 41 190 28 80 71 222 95
317 42 162 95 445 95 501 l0 25 23 -22 c24 -21 24 -22 10 -119z m-212 -938
c14 -7 34 -28 44 -48 18 -34 20 -34 46 -20 16 8 49 14 75 14 39 0 51 -5 79
-33 42 -42 51 -77 36 -128 -23 -77 -114 -144 -263 -195 l-67 -22 -56 84 c-89
132 -115 226 -81 292 38 74 109 95 187 56z m-350 -477 c-10 -9 -11 -8 -5 6 3
10 9 15 12 12 3 -3 0 -11 -7 -18z m-11 -166 c-5 -11 -15 -23 -21 -27 -6 -3 -3
5 6 20 20 30 30 35 15 7z m-77 -116 c-3 -9 -8 -14 -10 -11 -3 3 -2 9 2 15 9
16 15 13 8 -4z"/>
<path d="M3950 7420 c-37 -37 -22 -98 30 -120 25 -10 34 -10 55 4 48 31 54 76
17 119 -21 24 -77 22 -102 -3z m86 -13 c22 -19 26 -29 20 -51 -9 -36 -50 -52
-82 -31 -32 20 -32 68 -2 89 29 21 32 20 64 -7z"/>
<path d="M2450 7308 c-478 -45 -919 -259 -1202 -584 -231 -265 -377 -594 -440
-989 -29 -181 -31 -538 -5 -738 79 -589 311 -1156 685 -1672 324 -447 781
-917 1522 -1565 96 -84 187 -164 203 -178 15 -14 27 -21 27 -15 0 6 -98 98
-217 205 -863 767 -1295 1225 -1633 1733 -103 155 -270 474 -339 650 -117 296
-167 478 -217 785 -23 144 -27 195 -28 405 -1 272 9 364 60 573 43 174 78 273
150 417 266 530 742 861 1364 946 119 16 338 16 450 0 288 -41 562 -168 813
-377 169 -140 309 -295 423 -466 27 -41 51 -68 62 -68 10 0 42 36 78 88 235
335 638 648 981 761 276 91 599 99 928 21 162 -38 385 -123 385 -147 0 -27
-52 -198 -63 -209 -16 -16 -149 -60 -225 -75 -56 -10 -81 -23 -70 -34 2 -2 67
-20 143 -40 77 -20 146 -43 154 -50 8 -8 31 -78 51 -157 20 -78 41 -143 48
-146 11 -3 15 11 47 153 10 44 25 95 33 112 17 35 30 41 200 87 52 14 99 30
106 35 27 23 174 -169 283 -369 64 -118 143 -344 177 -505 47 -226 62 -560 36
-835 -25 -267 -107 -608 -220 -910 -65 -175 -215 -492 -281 -596 -76 -118
-132 -214 -127 -219 10 -10 209 317 286 470 102 204 218 526 281 780 75 300
96 478 96 790 -1 250 -8 330 -51 537 -72 345 -242 675 -463 898 -87 87 -261
224 -332 261 -27 13 -41 28 -45 47 -3 15 -10 38 -16 52 -10 24 -11 24 -18 5
-5 -11 -11 -28 -14 -38 -5 -17 -8 -16 -47 4 -65 33 -219 86 -327 113 -267 67
-550 79 -773 33 -278 -58 -502 -166 -745 -358 -121 -96 -310 -291 -408 -422
-49 -65 -92 -115 -96 -110 -4 4 -33 46 -65 93 -202 290 -460 518 -753 664
-176 88 -351 137 -547 156 -124 11 -170 11 -305 -2z m4104 -235 c15 -85 57
-203 77 -216 11 -8 69 -27 129 -43 61 -16 110 -31 110 -35 0 -3 -25 -11 -56
-17 -31 -7 -87 -21 -126 -33 -81 -24 -84 -28 -119 -183 -12 -53 -25 -96 -28
-96 -3 0 -21 53 -39 117 -18 64 -37 122 -43 130 -13 15 -150 59 -216 69 -24 4
-43 10 -43 14 0 4 26 12 58 19 118 26 191 52 206 73 9 12 27 72 42 134 15 63
30 111 34 109 4 -3 11 -22 14 -42z m191 -124 c28 -21 75 -61 105 -89 61 -57
63 -56 -65 -25 -38 10 -87 21 -107 27 -44 10 -58 32 -63 94 -6 69 0 76 43 51
20 -12 60 -38 87 -58z"/>
<path d="M5712 7190 c-31 -13 -55 -71 -43 -104 12 -30 48 -56 79 -56 31 0 82
52 82 84 0 53 -68 96 -118 76z m78 -42 c11 -12 20 -27 20 -34 0 -19 -40 -64
-59 -64 -31 0 -61 30 -61 60 0 57 60 80 100 38z"/>
<path d="M5300 7172 c-40 -32 -4 -85 41 -62 25 14 25 56 0 70 -15 7 -24 5 -41
-8z m40 -12 c13 -8 13 -11 -2 -27 -21 -20 -45 -5 -35 21 7 18 16 20 37 6z"/>
<path d="M1641 6874 c-28 -35 -26 -69 4 -99 48 -49 125 -15 125 55 0 64 -90
94 -129 44z m81 -6 c28 -22 31 -55 9 -77 -25 -25 -48 -27 -73 -4 -22 20 -23
51 -1 75 19 21 43 23 65 6z"/>
<path d="M2450 6879 c-93 -13 -163 -33 -168 -48 -5 -15 -8 -15 168 14 119 19
318 15 428 -9 60 -13 87 -7 65 15 -30 30 -345 48 -493 28z"/>
<path d="M5370 6830 c-30 -5 -70 -12 -87 -15 -21 -4 -33 -12 -33 -22 0 -17 -7
-17 150 7 97 14 231 12 363 -6 107 -15 141 -15 124 2 -30 30 -396 54 -517 34z"/>
<path d="M5071 6754 c-65 -25 -81 -24 -81 2 0 27 -24 9 -32 -23 -7 -25 -22
-39 -82 -72 -93 -51 -236 -158 -236 -177 0 -22 24 -17 50 11 47 50 225 163
238 151 3 -3 0 -31 -7 -61 -15 -68 -27 -76 -155 -109 -99 -25 -133 -41 -105
-50 8 -3 52 -15 99 -26 138 -34 137 -33 160 -109 11 -36 25 -93 32 -125 7 -33
18 -61 24 -63 6 -2 24 47 42 119 18 68 39 128 48 134 8 7 64 24 125 39 67 17
109 32 109 40 0 7 -21 18 -47 24 -135 33 -195 55 -204 75 -5 12 -15 52 -23 89
l-14 69 67 31 c79 36 77 35 65 46 -5 6 -35 0 -73 -15z m-77 -86 c3 -17 15 -62
26 -99 l20 -68 63 -20 c34 -11 82 -25 106 -31 23 -6 41 -13 39 -16 -3 -2 -43
-14 -89 -25 -120 -30 -123 -32 -149 -141 -12 -51 -26 -97 -30 -101 -4 -4 -17
32 -30 80 -12 48 -28 98 -36 110 -13 21 -150 73 -192 73 -34 0 5 17 87 39 47
12 91 26 98 32 7 6 18 30 23 53 40 154 52 175 64 114z"/>
<path d="M3271 6708 c0 -7 28 -26 62 -43 128 -63 259 -159 365 -270 112 -116
174 -203 228 -320 32 -72 54 -95 54 -57 0 25 -74 165 -134 252 -103 151 -305
325 -483 414 -78 39 -93 43 -92 24z"/>
<path d="M5481 6699 c-41 -16 -10 -25 77 -21 58 2 82 7 79 15 -5 15 -123 20
-156 6z"/>
<path d="M1735 6604 c-55 -40 -165 -144 -165 -156 0 -20 27 -3 93 57 40 35 87
75 106 87 33 22 42 40 24 45 -4 1 -30 -14 -58 -33z"/>
<path d="M5620 6620 c-13 -9 -13 -11 0 -20 20 -13 57 -13 66 1 14 23 -37 38
-66 19z"/>
<path d="M460 6512 c-25 -12 -39 -28 -47 -55 -25 -75 18 -137 94 -137 116 0
144 151 37 196 -42 18 -42 18 -84 -4z m108 -38 c47 -53 10 -134 -61 -134 -84
0 -111 122 -34 155 39 17 65 11 95 -21z"/>
<path d="M1647 6408 c-55 -60 -72 -87 -60 -99 10 -10 123 110 123 130 0 22
-24 10 -63 -31z"/>
<path d="M1837 6443 c-13 -12 -7 -41 10 -47 21 -8 48 17 40 38 -6 16 -38 22
-50 9z m38 -12 c7 -12 -12 -24 -25 -16 -11 7 -4 25 10 25 5 0 11 -4 15 -9z"/>
<path d="M3440 6297 c-54 -27 -60 -90 -13 -159 31 -45 97 -93 115 -82 37 22
91 72 108 100 43 68 11 144 -60 144 -21 0 -41 -4 -45 -9 -3 -6 -19 -4 -40 5
-41 17 -34 17 -65 1z m81 -34 c14 -11 18 -11 29 2 31 37 100 4 100 -49 0 -29
-37 -82 -81 -117 l-40 -32 -50 49 c-56 55 -76 102 -59 134 21 38 65 44 101 13z"/>
<path d="M7121 6283 c-11 -10 -24 -32 -27 -50 -12 -60 61 -104 113 -68 40 28
37 89 -6 122 -23 18 -55 16 -80 -4z m73 -16 c36 -27 14 -97 -31 -97 -18 0 -53
37 -53 55 0 18 35 55 53 55 7 0 21 -6 31 -13z"/>
<path d="M4342 6174 c-77 -98 -167 -253 -155 -265 8 -8 23 10 52 59 43 74 152
225 170 236 6 4 11 14 11 22 0 30 -27 12 -78 -52z"/>
<path d="M1434 6143 c-38 -7 -69 -50 -68 -95 2 -76 78 -118 142 -78 95 59 38
194 -74 173z m81 -43 c28 -31 24 -79 -9 -107 -15 -12 -36 -23 -46 -23 -34 0
-73 43 -73 80 0 62 87 96 128 50z"/>
<path d="M3905 5920 c-24 -27 -24 -79 0 -96 45 -33 105 -4 105 49 0 57 -69 87
-105 47z m83 -46 c3 -18 -2 -32 -14 -41 -24 -17 -30 -17 -54 7 -25 25 -25 35
0 60 27 27 64 13 68 -26z"/>
<path d="M7755 5905 c-19 -18 -25 -35 -25 -65 0 -86 90 -121 152 -60 26 27 30
36 25 68 -12 76 -101 109 -152 57z m96 -6 c60 -32 31 -129 -39 -129 -24 0 -62
41 -62 67 0 27 41 73 65 73 9 0 25 -5 36 -11z"/>
<path d="M6846 5842 c-2 -4 6 -38 19 -75 52 -143 80 -294 88 -477 3 -57 8 -85
17 -88 23 -8 6 272 -24 398 -43 183 -80 273 -100 242z"/>
<path d="M951 5764 c-12 -15 -21 -37 -21 -49 0 -37 37 -75 73 -75 38 0 50 7
66 37 17 34 13 62 -14 88 -33 34 -77 33 -104 -1z m93 -16 c20 -29 20 -47 -1
-70 -32 -35 -93 -13 -93 34 0 52 66 77 94 36z"/>
<path d="M1535 5738 c-2 -7 -21 -85 -43 -174 -22 -88 -45 -173 -53 -190 -19
-39 -66 -60 -217 -96 -70 -17 -144 -35 -165 -40 -22 -5 -37 -14 -34 -21 4 -13
33 -21 208 -61 64 -15 136 -37 160 -49 51 -26 56 -38 110 -280 19 -85 38 -146
44 -144 5 2 16 28 23 58 7 30 24 104 38 164 37 156 52 188 102 208 43 17 196
57 295 77 32 6 57 17 57 24 0 7 -63 28 -163 53 -189 47 -215 57 -239 99 -17
29 -63 200 -88 327 -11 54 -25 73 -35 45z m49 -198 c52 -204 56 -212 96 -232
19 -9 76 -28 125 -42 50 -14 113 -31 140 -39 57 -16 57 -16 -80 -47 -135 -31
-202 -57 -222 -86 -8 -13 -33 -92 -54 -176 -21 -83 -41 -153 -43 -156 -3 -2
-8 9 -11 24 -38 171 -79 302 -99 322 -23 24 -161 68 -289 93 -32 7 -55 14 -53
17 3 3 63 19 134 37 71 18 149 42 173 52 44 20 46 23 72 104 15 46 36 126 48
177 12 51 23 91 25 89 2 -1 19 -63 38 -137z"/>
<path d="M6803 5609 c3 -19 13 -72 22 -119 8 -47 18 -129 22 -182 4 -72 10
-98 20 -98 38 0 -16 415 -56 428 -11 4 -13 -3 -8 -29z"/>
<path d="M923 5078 c12 -9 14 -17 7 -28 -8 -13 -13 -13 -31 -2 -19 12 -21 12
-15 -3 3 -9 6 -19 6 -21 0 -2 11 -4 25 -4 33 0 51 33 29 54 -8 9 -20 16 -27
16 -6 0 -3 -6 6 -12z"/>
<path d="M7245 5045 c-29 -28 -31 -42 -9 -73 19 -27 64 -29 87 -4 24 26 21 68
-5 86 -31 22 -45 20 -73 -9z m75 -34 c0 -26 -25 -44 -50 -36 -25 8 -27 50 -3
64 23 12 53 -4 53 -28z"/>
<path d="M1971 4879 c-33 -13 -50 -38 -51 -72 0 -35 40 -77 75 -77 51 0 89 63
69 115 -5 13 -55 47 -66 44 -2 0 -14 -5 -27 -10z m63 -35 c35 -34 11 -84 -40
-84 -43 0 -64 34 -46 75 14 29 61 35 86 9z"/>
<path d="M6916 4818 c-19 -171 -101 -461 -171 -606 -36 -75 -42 -102 -25 -102
23 0 111 214 161 390 29 103 69 310 69 356 0 14 -6 24 -14 24 -9 0 -16 -20
-20 -62z"/>
<path d="M7186 4764 c-40 -39 0 -98 50 -75 17 7 24 19 24 39 0 49 -42 69 -74
36z m54 -19 c10 -12 10 -18 0 -30 -25 -30 -61 -7 -46 30 3 8 12 15 19 15 8 0
20 -7 27 -15z"/>
<path d="M1042 4563 c-18 -7 -42 -57 -42 -88 0 -66 102 -102 148 -52 22 23 30
80 14 103 -24 34 -82 53 -120 37z m95 -49 c15 -23 15 -29 2 -52 -21 -38 -43
-48 -73 -34 -65 29 -51 112 19 112 26 0 39 -6 52 -26z"/>
<path d="M1304 4390 c3 -17 25 -81 49 -142 l44 -112 -18 -31 c-25 -39 -25
-119 -1 -164 28 -52 118 -135 197 -182 54 -32 79 -54 96 -84 32 -59 180 -275
236 -345 44 -55 73 -75 73 -49 0 5 -26 42 -57 82 -57 72 -185 259 -212 309
-13 25 -11 29 63 115 42 48 90 116 107 149 71 143 16 274 -115 274 -52 0 -78
-10 -117 -47 -25 -23 -29 -24 -50 -10 -13 8 -37 18 -52 21 -19 4 -32 17 -41
39 -44 104 -47 110 -58 99 -8 -8 -5 -28 11 -72 13 -34 21 -63 19 -64 -1 -2
-15 -6 -29 -9 -24 -6 -29 -2 -48 42 -11 27 -33 86 -47 130 -17 55 -31 81 -41
81 -12 0 -14 -7 -9 -30z m542 -233 c31 -28 37 -41 42 -86 4 -45 0 -61 -31
-124 -37 -73 -151 -217 -171 -217 -6 0 -47 21 -90 46 -146 85 -228 193 -212
277 16 85 132 126 208 73 l38 -25 17 26 c25 38 72 63 121 63 34 0 49 -6 78
-33z"/>
<path d="M6596 4378 c-34 -48 -7 -108 48 -108 19 0 40 8 49 18 22 25 21 75 -1
95 -27 25 -78 22 -96 -5z m89 -18 c15 -17 16 -24 7 -46 -10 -21 -18 -25 -44
-22 -25 2 -35 9 -42 30 -18 52 41 80 79 38z"/>
<path d="M1230 4310 c0 -11 4 -20 9 -20 5 0 7 9 4 20 -3 11 -7 20 -9 20 -2 0
-4 -9 -4 -20z"/>
<path d="M6782 3968 c-22 -22 -14 -57 13 -64 45 -11 71 29 39 60 -19 19 -36
20 -52 4z m45 -24 c9 -23 -13 -40 -32 -24 -12 10 -13 16 -4 26 15 18 28 18 36
-2z"/>
<path d="M685 3748 c-69 -37 -56 -129 20 -144 83 -16 120 102 44 141 -33 18
-38 18 -64 3z m69 -34 c33 -32 8 -84 -39 -84 -23 0 -55 33 -55 57 0 19 30 43
55 43 13 0 31 -7 39 -16z"/>
<path d="M6561 3694 c-17 -12 -26 -13 -34 -5 -6 6 -31 11 -54 11 -59 0 -93
-33 -93 -90 0 -51 18 -87 67 -131 62 -56 109 -82 130 -70 29 15 122 117 133
146 20 54 8 114 -29 142 -23 18 -93 16 -120 -3z m-32 -28 c14 -13 19 -12 40 5
53 43 131 8 131 -59 0 -47 -44 -120 -95 -160 l-44 -33 -39 24 c-121 77 -161
175 -94 228 29 23 73 20 101 -5z"/>
<path d="M2200 3557 c-56 -28 -59 -107 -4 -127 72 -28 135 52 87 108 -24 27
-53 34 -83 19z m64 -36 c23 -25 13 -59 -21 -72 -48 -18 -86 29 -56 70 18 26
55 27 77 2z"/>
<path d="M5700 3336 c-6 -8 -10 -25 -8 -38 2 -19 9 -23 38 -23 29 0 36 4 38
23 4 28 -14 52 -38 52 -10 0 -23 -7 -30 -14z m48 -5 c23 -14 10 -46 -18 -46
-16 0 -26 6 -28 19 -3 16 12 36 28 36 3 0 11 -4 18 -9z"/>
<path d="M6767 3311 c-4 -17 -3 -21 5 -13 5 5 8 16 6 23 -3 8 -7 3 -11 -10z"/>
<path d="M2469 3104 c-16 -20 -1 -48 29 -52 27 -4 49 33 31 54 -15 19 -43 18
-60 -2z m51 -20 c0 -9 -7 -14 -17 -12 -25 5 -28 28 -4 28 12 0 21 -6 21 -16z"/>
<path d="M3027 3083 c-2 -4 -10 -33 -17 -63 -7 -30 -23 -92 -37 -138 -28 -96
-20 -90 -183 -129 -102 -24 -130 -36 -118 -49 4 -3 60 -19 125 -36 65 -16 127
-35 138 -43 16 -9 29 -47 55 -149 19 -79 39 -136 45 -136 7 0 24 50 40 118 25
105 48 172 60 172 2 0 44 11 92 25 48 13 108 29 132 35 37 10 41 14 30 24 -8
8 -57 24 -109 36 -99 23 -138 39 -158 63 -7 7 -26 70 -43 138 -30 120 -41 150
-52 132z m48 -191 c32 -118 30 -116 160 -151 44 -12 87 -24 95 -27 8 -3 -34
-18 -95 -34 -74 -19 -115 -35 -126 -49 -14 -17 -31 -71 -65 -206 -7 -30 -7
-29 -21 20 -7 28 -24 82 -36 120 -26 81 -31 85 -168 118 -49 12 -89 25 -89 28
0 3 35 13 78 23 42 10 96 26 118 36 46 20 48 24 90 194 20 80 18 82 59 -72z"/>
<path d="M5600 3043 c-5 -21 -12 -63 -15 -93 -4 -46 -1 -42 13 30 l18 85 13
-72 c7 -40 17 -76 23 -79 6 -4 8 1 5 12 -3 11 -11 47 -17 82 -7 34 -16 65 -21
68 -4 2 -13 -12 -19 -33z"/>
<path d="M1318 2988 c-17 -17 -32 -21 -67 -19 -38 2 -50 -2 -67 -21 -32 -34
-36 -67 -14 -114 20 -46 86 -92 164 -116 37 -12 39 -11 67 23 44 52 79 129 79
172 0 82 -106 131 -162 75z m112 -18 c30 -30 26 -94 -10 -155 -55 -94 -50 -91
-117 -60 -83 37 -123 79 -123 127 0 49 33 73 89 64 32 -5 41 -2 61 19 29 31
72 33 100 5z"/>
<path d="M2160 2658 c0 -15 51 -41 61 -31 18 18 -1 42 -32 40 -16 -1 -29 -5
-29 -9z"/>
<path d="M1510 2630 c-15 -29 -3 -59 26 -66 30 -8 54 11 54 40 0 46 -59 64
-80 26z m57 -16 c3 -8 1 -20 -6 -27 -14 -14 -47 15 -37 32 10 16 36 13 43 -5z"/>
<path d="M2377 2552 c-38 -42 -7 -122 47 -122 60 0 92 75 51 120 -23 25 -76
26 -98 2z m86 -23 c14 -23 1 -67 -23 -74 -46 -15 -82 49 -48 83 17 17 58 11
71 -9z"/>
<path d="M2796 2402 c-2 -4 -1 -14 4 -21 11 -19 41 -6 34 14 -6 16 -29 20 -38
7z"/>
<path d="M2867 2343 c-4 -3 -7 -10 -7 -13 0 -9 249 -237 340 -311 36 -29 102
-84 148 -123 57 -47 86 -66 93 -59 7 7 -26 41 -108 109 -135 113 -276 238
-379 336 -75 71 -77 72 -87 61z m413 -368 c13 -14 21 -25 18 -25 -2 0 -15 11
-28 25 -13 14 -21 25 -18 25 2 0 15 -11 28 -25z"/>
<path d="M1307 2183 c-2 -5 -14 -48 -27 -97 -13 -50 -32 -98 -41 -107 -18 -18
-51 -29 -151 -49 -33 -7 -58 -17 -58 -24 0 -7 38 -22 92 -36 56 -15 101 -32
114 -45 14 -14 30 -56 45 -118 12 -53 28 -97 34 -97 5 0 22 48 37 107 16 59
31 110 35 114 5 4 53 19 107 34 55 14 102 28 105 30 11 11 -18 25 -99 45 -46
12 -92 26 -101 30 -15 8 -38 79 -63 193 -6 26 -20 36 -29 20z m23 -73 c0 -10
9 -47 20 -83 22 -72 33 -80 149 -107 62 -15 57 -20 -46 -45 -40 -9 -77 -22
-82 -29 -6 -7 -19 -50 -30 -95 -11 -46 -22 -85 -24 -87 -2 -2 -14 35 -26 83
-12 48 -26 92 -32 99 -5 7 -42 20 -82 29 -40 10 -76 21 -80 25 -4 4 23 15 60
25 102 26 108 32 133 129 21 77 40 104 40 56z"/>
<path d="M1540 1755 c-11 -13 -11 -19 3 -33 20 -19 41 -5 35 24 -4 24 -22 28
-38 9z m30 -10 c0 -8 -7 -15 -15 -15 -16 0 -20 12 -8 23 11 12 23 8 23 -8z"/>
<path d="M4300 1690 c-12 -8 -11 -10 7 -10 12 0 30 -3 40 -6 16 -5 16 -4 -1
10 -23 19 -26 19 -46 6z"/>
<path d="M4413 1693 c-12 -2 -27 -11 -35 -20 -12 -15 -11 -15 9 -5 39 21 70
14 97 -20 28 -35 33 -33 15 5 -9 20 -53 52 -62 46 -1 -1 -12 -4 -24 -6z"/>
<path d="M3710 1676 c0 -3 9 -10 20 -16 11 -6 20 -8 20 -6 0 3 -9 10 -20 16
-11 6 -20 8 -20 6z"/>
<path d="M3785 1651 c6 -11 4 -13 -8 -8 -23 9 -21 0 2 -13 15 -7 19 -7 17 5
-1 8 -6 18 -11 22 -4 5 -5 2 0 -6z"/>
<path d="M3813 1625 c0 -7 6 -11 14 -8 7 3 13 6 13 8 0 2 -6 5 -13 8 -8 3 -14
-1 -14 -8z"/>
<path d="M2113 1564 c-8 -21 13 -42 28 -27 13 13 5 43 -11 43 -6 0 -13 -7 -17
-16z"/>
<path d="M3267 1539 c12 -12 25 -20 28 -17 3 3 -7 13 -22 23 l-28 17 22 -23z"/>
<path d="M3310 1506 c0 -2 7 -9 15 -16 13 -11 14 -10 9 4 -5 14 -24 23 -24 12z"/>
<path d="M4100 1498 c0 -5 18 -8 40 -8 22 0 40 2 40 4 0 2 -18 6 -40 8 -22 2
-40 0 -40 -4z"/>
<path d="M3230 1456 c0 -2 8 -10 18 -17 15 -13 16 -12 3 4 -13 16 -21 21 -21
13z"/>
<path d="M3395 1430 c10 -11 20 -20 23 -20 3 0 -3 9 -13 20 -10 11 -20 20 -23
20 -3 0 3 -9 13 -20z"/>
<path d="M3230 1406 c0 -2 8 -10 18 -17 15 -13 16 -12 3 4 -13 16 -21 21 -21
13z"/>
<path d="M4058 1403 c6 -2 18 -2 25 0 6 3 1 5 -13 5 -14 0 -19 -2 -12 -5z"/>
<path d="M3277 1283 c-9 -8 12 -33 27 -33 6 0 3 5 -7 11 -9 6 -15 14 -12 20 7
10 2 12 -8 2z"/>
<path d="M3320 1236 c0 -2 8 -10 18 -17 15 -13 16 -12 3 4 -13 16 -21 21 -21
13z"/>
<path d="M4915 950 c-3 -5 -1 -10 4 -10 6 0 11 5 11 10 0 6 -2 10 -4 10 -3 0
-8 -4 -11 -10z"/>
</g>
</svg>
